# xmcd
#
# Track frame offsets:
#	150
#	13365
#	27395
#	42112
#	53850
#	65607
#	76860
#	89630
#	100862
#	111402
#	121002
#	131860
#
# Disc length: 1910 seconds
#
# Revision: 0
# Processed by: cddbd v1.5.1PL2 Copyright (c) Steve Scherf et al.
# Submitted via: dBpowerAMP V4.0
#
DISCID=a407740c
DTITLE=Patsy Cline - Vintage Vaults
DYEAR=2005
DGENRE=Country
TTITLE0=Life's Railway to Heaven
TTITLE1=A Church, A Courtroom, And Then Goodbye
TTITLE2=Then You'll Know
TTITLE3=The Heart You Break May Be Your Own
TTITLE4=I've Loved And Lost Again
TTITLE5=There He Goes
TTITLE6=Fingerprints
TTITLE7=I Can't Forget
TTITLE8=Pick Me Up On Your Way Down
TTITLE9=Love, Love, Love Me, Honey Do
TTITLE10=I Can See An Angel Walkin'
TTITLE11=Dear God (AKA I Go To Church On Sunday)
EXTD=
EXTT0=
EXTT1=
EXTT2=
EXTT3=
EXTT4=
EXTT5=
EXTT6=
EXTT7=
EXTT8=
EXTT9=
EXTT10=
EXTT11=
PLAYORDER=
